# xmcd
#
# Track frame offsets: 
#        150
#        16645
#        33118
#        52680
#        67058
#        78043
#        96310
#        114326
#        137251
#        157068
#        175305
#        189577
#        205032
#
# Disc length: 3038 seconds
#
# Revision: 0
# Processed by: cddbd v1.5.2PL0 Copyright (c) Steve Scherf et al.
# Submitted via: ExactAudioCopy v1.2
#
DISCID=970bdc0d
DTITLE=Al Basile - Mid-Century Modern
DYEAR=2016
DGENRE=Blues
TTITLE0=Keep Your Love, Where's My Money?
TTITLE1=Like You or Despise You
TTITLE2=Midnight Blue Persuasion
TTITLE3=Tickle My Mule
TTITLE4=I've Got to have Meat (with Every Meal)
TTITLE5=Like a Woman, Like a Man
TTITLE6=Blank Dog
TTITLE7=Carry These Blues
TTITLE8=No Truth to the Rumor
TTITLE9=Listen to the Elders
TTITLE10=Night Crossing
TTITLE11=Big Trees Falling
TTITLE12=Lie Under the House with Me
EXTD=
EXTT0=
EXTT1=
EXTT2=
EXTT3=
EXTT4=
EXTT5=
EXTT6=
EXTT7=
EXTT8=
EXTT9=
EXTT10=
EXTT11=
EXTT12=
PLAYORDER=
